{"title":"Fading.of.The.Cries.2011.R5.x264.Feel-Free","uid":6307820,"size":1294262008,"categoryP":"video","categoryS":"movies","magnet":"?xt=urn:btih:296deebf94ff4650186e3cd734da8bd25a73443c&amp;dn=Fading.of.The.Cries.2011.R5.x264.Feel-Free&amp;tr=udp%3A%2F%2Ftracker.openbittorrent.com%3A80&amp;tr=udp%3A%2F%2Fopen.demonii.com%3A1337&amp;tr=udp%3A%2F%2Ftracker.coppersurfer.tk%3A6969&amp;tr=udp%3A%2F%2Fexodus.desync.com%3A6969","seeders":0,"leechers":0,"uploader":"hiest","files":-1,"time":1302417444,"description":"######## ######## ######## ##          ######## ########  ######## ######## \n##       ##       ##       ##          ##       ##     ## ##       ##       \n##       ##       ##       ##          ##       ##     ## ##       ##       \n######   ######   ######   ##          ######   ########  ######   ######   \n##       ##       ##       ##          ##       ##   ##   ##       ##       \n##       ##       ##       ##          ##       ##    ##  ##       ##       \n##       ######## ######## ########    ##       ##     ## ######## ######## \n\n\nGenre:Fantasy | Horror\nLanguage:English\nIMDb: &lt;a href=&quot;\nhttp://www.imdb.com/title/tt1262406/&quot; rel=&quot;nofollow&quot; target=&quot;_NEW&quot;&gt;\nhttp://www.imdb.com/title/tt1262406/&lt;/a&gt;\nSource:DVD5\n\n\nFormat : MPEG-4\nFormat profile : Base Media\nCodec ID : isom\nFile size : 1.20 GiB\nDuration : 1h 29mn\nOverall bit rate : 1 926 Kbps\n\n\nVideo\nFormat profile : &lt;a class=&quot;__cf_email__&quot; href=&quot;/cdn-cgi/l/email-protection&quot; data-cfemail=&quot;9fd7f6f8f7dfd3abb1ae&quot;&gt;[email&amp;#160;protected]&lt;/a&gt;&lt;script cf-hash='f9e31' type=&quot;text/javascript&quot;&gt;\n/* &lt;![CDATA[ */!function(){try{var t=&quot;currentScript&quot;in document?document.currentScript:function(){for(var t=document.getElementsByTagName(&quot;script&quot;),e=t.length;e--;)if(t[e].getAttribute(&quot;cf-hash&quot;))return t[e]}();if(t&amp;&amp;t.previousSibling){var e,r,n,i,c=t.previousSibling,a=c.getAttribute(&quot;data-cfemail&quot;);if(a){for(e=&quot;&quot;,r=parseInt(a.substr(0,2),16),n=2;a.length-n;n+=2)i=parseInt(a.substr(n,2),16)^r,e+=String.fromCharCode(i);e=document.createTextNode(e),c.parentNode.replaceChild(e,c)}}}catch(u){}}();/* ]]&gt; */&lt;/script&gt;\nFormat settings, CABAC : Yes\nFormat settings, ReFrames : 3 frames\nCodec ID : avc1\nCodec ID/Info : Advanced Video Coding\nDuration : 1h 29mn\nBit rate mode : Variable\nBit rate : 1 500 Kbps\nMaximum bit rate : 6 017 Kbps\nWidth : 672 pixels\nHeight : 352 pixels\nDisplay aspect ratio : 1.909\nFrame rate mode : Constant\nFrame rate : 25.000 fps\nColor space : YUV\nChroma subsampling : 4:2:0\nBit depth : 8 bits\nScan type : Progressive\nBits/(Pixel*Frame) : 0.254\nStream size : 946 MiB (77%)\nWriting library : x264\n\n\nAudio\nID : 2\nFormat : AAC\nFormat/Info : Advanced Audio Codec\nFormat version : Version 4\nFormat profile : LC\nFormat settings, SBR : No\nCodec ID : 40\nDuration : 1h 29mn\nBit rate mode : Variable\nBit rate : 444 Kbps\nMaximum bit rate : 522 Kbps\nChannel(s) : 6 channels\nChannel positions : Front: L C R, Side: L R, LFE\nSampling rate : 48.0 KHz\nStream size : 284 MiB (23%)\n\n\nPlot:\nJacob, a young man armed with a deadly sword, saves Sarah, a teenage girl, from Mathias, a malevolent..\n\n\n\nGreets:\n\nINK,CRYS,IMAGINE,LKRG,FXG,3Li,FLAWL3SS,TA,iLLUSiON,ViSiON,DTRG SAFCuk009,LU,TheFalcon007,MYSTiC,PrisM,Noir,WBZ,LAP,Rx,Kingdom,SAFCuk009+Fabreezy,HDLiTE,TWiZTED,ExtraTorrentRG.ELEKTRI4KA,MAGNAT,CM8\nAnd to all the other p2p grps past and present\n\n\n\n\n\n================================== &lt;a href=&quot;\nhttp://thepiratebay.se/user/hiest&quot; rel=&quot;nofollow&quot; target=&quot;_NEW&quot;&gt;\nhttp://thepiratebay.se/user/hiest&lt;/a&gt;\n==================================\n\n\n\n\n\nScreenshots:\n &lt;a href=&quot;\nhttp://www.pix2links.com/images/84722581203737994099.png&quot; rel=&quot;nofollow&quot; target=&quot;_NEW&quot;&gt;\nhttp://www.pix2links.com/images/84722581203737994099.png&lt;/a&gt;\n &lt;a href=&quot;\nhttp://www.pix2links.com/images/25117908224502556601.png&quot; rel=&quot;nofollow&quot; target=&quot;_NEW&quot;&gt;\nhttp://www.pix2links.com/images/25117908224502556601.png&lt;/a&gt;\n &lt;a href=&quot;\nhttp://www.pix2links.com/images/37923677193744130425.png&quot; rel=&quot;nofollow&quot; target=&quot;_NEW&quot;&gt;\nhttp://www.pix2links.com/images/37923677193744130425.png&lt;/a&gt;\n &lt;a href=&quot;\nhttp://www.pix2links.com/images/99349921620735688780.png&quot; rel=&quot;nofollow&quot; target=&quot;_NEW&quot;&gt;\nhttp://www.pix2links.com/images/99349921620735688780.png&lt;/a&gt;\n &lt;a href=&quot;\nhttp://www.pix2links.com/images/84663592528611643305.png&quot; rel=&quot;nofollow&quot; target=&quot;_NEW&quot;&gt;\nhttp://www.pix2links.com/images/84663592528611643305.png&lt;/a&gt;\n\n######## ######## ######## ##          ######## ########  ######## ######## \n##       ##       ##       ##          ##       ##     ## ##       ##       \n##       ##       ##       ##          ##       ##     ## ##       ##       \n######   ######   ######   ##          ######   ########  ######   ######   \n##       ##       ##       ##          ##       ##   ##   ##       ##       \n##       ##       ##       ##          ##       ##    ##  ##       ##       \n##       ######## ######## ########    ##       ##     ## ######## ######## \n","torrent":{"xt":"urn:btih:296deebf94ff4650186e3cd734da8bd25a73443c","amp;dn":"Fading.of.The.Cries.2011.R5.x264.Feel-Free","amp;tr":["udp%3A%2F%2Ftracker.openbittorrent.com%3A80","udp%3A%2F%2Fopen.demonii.com%3A1337","udp%3A%2F%2Ftracker.coppersurfer.tk%3A6969","udp%3A%2F%2Fexodus.desync.com%3A6969"],"infoHash":"296deebf94ff4650186e3cd734da8bd25a73443c","infoHashBuffer":{"type":"Buffer","data":[41,109,238,191,148,255,70,80,24,110,60,215,52,218,139,210,90,115,68,60]},"announce":[],"urlList":[]}}